<svg width="129" height="23" viewBox="0 0 129 23" fill="none" xmlns="http://www.w3.org/2000/svg">
<path d="M16.155 17.175C16.375 17.175 16.57 17.26 16.74 17.43L18.33 19.155C17.45 20.245 16.365 21.08 15.075 21.66C13.795 22.24 12.255 22.53 10.455 22.53C8.845 22.53 7.395 22.255 6.105 21.705C4.825 21.155 3.73 20.39 2.82 19.41C1.91 18.43 1.21 17.26 0.72 15.9C0.24 14.54 0 13.055 0 11.445C0 9.815 0.26 8.325 0.78 6.975C1.3 5.615 2.03 4.445 2.97 3.465C3.92 2.485 5.05 1.725 6.36 1.185C7.67 0.635 9.12 0.360001 10.71 0.360001C12.29 0.360001 13.69 0.62 14.91 1.14C16.14 1.66 17.185 2.34 18.045 3.18L16.695 5.055C16.615 5.175 16.51 5.28 16.38 5.37C16.26 5.46 16.09 5.505 15.87 5.505C15.72 5.505 15.565 5.465 15.405 5.385C15.245 5.295 15.07 5.19 14.88 5.07C14.69 4.94 14.47 4.8 14.22 4.65C13.97 4.5 13.68 4.365 13.35 4.245C13.02 4.115 12.635 4.01 12.195 3.93C11.765 3.84 11.265 3.795 10.695 3.795C9.725 3.795 8.835 3.97 8.025 4.32C7.225 4.66 6.535 5.16 5.955 5.82C5.375 6.47 4.925 7.27 4.605 8.22C4.285 9.16 4.125 10.235 4.125 11.445C4.125 12.665 4.295 13.75 4.635 14.7C4.985 15.65 5.455 16.45 6.045 17.1C6.635 17.75 7.33 18.25 8.13 18.6C8.93 18.94 9.79 19.11 10.71 19.11C11.26 19.11 11.755 19.08 12.195 19.02C12.645 18.96 13.055 18.865 13.425 18.735C13.805 18.605 14.16 18.44 14.49 18.24C14.83 18.03 15.165 17.775 15.495 17.475C15.595 17.385 15.7 17.315 15.81 17.265C15.92 17.205 16.035 17.175 16.155 17.175Z" fill="#F2F2F2"/>
<path d="M26.9967 6.66C28.1367 6.66 29.1717 6.845 30.1017 7.215C31.0417 7.585 31.8417 8.11 32.5017 8.79C33.1717 9.47 33.6867 10.3 34.0467 11.28C34.4067 12.26 34.5867 13.355 34.5867 14.565C34.5867 15.785 34.4067 16.885 34.0467 17.865C33.6867 18.845 33.1717 19.68 32.5017 20.37C31.8417 21.06 31.0417 21.59 30.1017 21.96C29.1717 22.33 28.1367 22.515 26.9967 22.515C25.8467 22.515 24.8017 22.33 23.8617 21.96C22.9217 21.59 22.1167 21.06 21.4467 20.37C20.7867 19.68 20.2717 18.845 19.9017 17.865C19.5417 16.885 19.3617 15.785 19.3617 14.565C19.3617 13.355 19.5417 12.26 19.9017 11.28C20.2717 10.3 20.7867 9.47 21.4467 8.79C22.1167 8.11 22.9217 7.585 23.8617 7.215C24.8017 6.845 25.8467 6.66 26.9967 6.66ZM26.9967 19.665C28.2767 19.665 29.2217 19.235 29.8317 18.375C30.4517 17.515 30.7617 16.255 30.7617 14.595C30.7617 12.935 30.4517 11.67 29.8317 10.8C29.2217 9.93 28.2767 9.495 26.9967 9.495C25.6967 9.495 24.7317 9.935 24.1017 10.815C23.4817 11.685 23.1717 12.945 23.1717 14.595C23.1717 16.245 23.4817 17.505 24.1017 18.375C24.7317 19.235 25.6967 19.665 26.9967 19.665Z" fill="#F2F2F2"/>
<path d="M47.0733 10.83C46.6533 10.32 46.1933 9.96 45.6933 9.75C45.2033 9.54 44.6733 9.435 44.1033 9.435C43.5433 9.435 43.0383 9.54 42.5883 9.75C42.1383 9.96 41.7533 10.28 41.4333 10.71C41.1133 11.13 40.8683 11.67 40.6983 12.33C40.5283 12.98 40.4433 13.75 40.4433 14.64C40.4433 15.54 40.5133 16.305 40.6533 16.935C40.8033 17.555 41.0133 18.065 41.2833 18.465C41.5533 18.855 41.8833 19.14 42.2733 19.32C42.6633 19.49 43.0983 19.575 43.5783 19.575C44.3483 19.575 45.0033 19.415 45.5433 19.095C46.0833 18.775 46.5933 18.32 47.0733 17.73V10.83ZM50.7783 0V22.29H48.5133C48.0233 22.29 47.7133 22.065 47.5833 21.615L47.2683 20.13C46.6483 20.84 45.9333 21.415 45.1233 21.855C44.3233 22.295 43.3883 22.515 42.3183 22.515C41.4783 22.515 40.7083 22.34 40.0083 21.99C39.3083 21.64 38.7033 21.135 38.1933 20.475C37.6933 19.805 37.3033 18.98 37.0233 18C36.7533 17.02 36.6183 15.9 36.6183 14.64C36.6183 13.5 36.7733 12.44 37.0833 11.46C37.3933 10.48 37.8383 9.63 38.4183 8.91C38.9983 8.19 39.6933 7.63 40.5033 7.23C41.3133 6.82 42.2233 6.615 43.2333 6.615C44.0933 6.615 44.8283 6.75 45.4383 7.02C46.0483 7.29 46.5933 7.655 47.0733 8.115V0H50.7783Z" fill="#F2F2F2"/>
<path d="M62.5648 15.72C61.4948 15.77 60.5948 15.865 59.8648 16.005C59.1348 16.135 58.5498 16.305 58.1098 16.515C57.6698 16.725 57.3548 16.97 57.1648 17.25C56.9748 17.53 56.8798 17.835 56.8798 18.165C56.8798 18.815 57.0698 19.28 57.4498 19.56C57.8398 19.84 58.3448 19.98 58.9648 19.98C59.7248 19.98 60.3798 19.845 60.9298 19.575C61.4898 19.295 62.0348 18.875 62.5648 18.315V15.72ZM54.0748 9.045C55.8448 7.425 57.9748 6.615 60.4648 6.615C61.3648 6.615 62.1698 6.765 62.8798 7.065C63.5898 7.355 64.1898 7.765 64.6798 8.295C65.1698 8.815 65.5398 9.44 65.7898 10.17C66.0498 10.9 66.1798 11.7 66.1798 12.57V22.29H64.4998C64.1498 22.29 63.8798 22.24 63.6898 22.14C63.4998 22.03 63.3498 21.815 63.2398 21.495L62.9098 20.385C62.5198 20.735 62.1398 21.045 61.7698 21.315C61.3998 21.575 61.0148 21.795 60.6148 21.975C60.2148 22.155 59.7848 22.29 59.3248 22.38C58.8748 22.48 58.3748 22.53 57.8248 22.53C57.1748 22.53 56.5748 22.445 56.0248 22.275C55.4748 22.095 54.9998 21.83 54.5998 21.48C54.1998 21.13 53.8898 20.695 53.6698 20.175C53.4498 19.655 53.3398 19.05 53.3398 18.36C53.3398 17.97 53.4048 17.585 53.5348 17.205C53.6648 16.815 53.8748 16.445 54.1648 16.095C54.4648 15.745 54.8498 15.415 55.3198 15.105C55.7898 14.795 56.3648 14.525 57.0448 14.295C57.7348 14.065 58.5348 13.88 59.4448 13.74C60.3548 13.59 61.3948 13.5 62.5648 13.47V12.57C62.5648 11.54 62.3448 10.78 61.9048 10.29C61.4648 9.79 60.8298 9.54 59.9998 9.54C59.3998 9.54 58.8998 9.61 58.4998 9.75C58.1098 9.89 57.7648 10.05 57.4648 10.23C57.1648 10.4 56.8898 10.555 56.6398 10.695C56.3998 10.835 56.1298 10.905 55.8298 10.905C55.5698 10.905 55.3498 10.84 55.1698 10.71C54.9898 10.57 54.8448 10.41 54.7348 10.23L54.0748 9.045Z" fill="#F2F2F2"/>
<path d="M97.5907 0.599999L90.8557 22.29H87.2107L82.4707 7.47C82.3407 7.11 82.2207 6.67 82.1107 6.15C82.0507 6.4 81.9907 6.635 81.9307 6.855C81.8707 7.075 81.8057 7.28 81.7357 7.47L76.9507 22.29H73.2907L66.5707 0.599999H69.9457C70.2957 0.599999 70.5857 0.685 70.8157 0.855C71.0557 1.015 71.2157 1.235 71.2957 1.515L74.9857 14.49C75.0657 14.81 75.1407 15.16 75.2107 15.54C75.2907 15.91 75.3707 16.3 75.4507 16.71C75.5307 16.29 75.6157 15.895 75.7057 15.525C75.8057 15.155 75.9107 14.81 76.0207 14.49L80.2807 1.515C80.3607 1.285 80.5157 1.075 80.7457 0.885C80.9857 0.695 81.2757 0.599999 81.6157 0.599999H82.8007C83.1507 0.599999 83.4357 0.685 83.6557 0.855C83.8757 1.025 84.0407 1.245 84.1507 1.515L88.3957 14.49C88.6057 15.11 88.7957 15.825 88.9657 16.635C89.0957 15.845 89.2407 15.13 89.4007 14.49L93.0907 1.515C93.1507 1.265 93.3007 1.05 93.5407 0.87C93.7907 0.69 94.0857 0.599999 94.4257 0.599999H97.5907Z" fill="#F2F2F2"/>
<path d="M107.768 12.825C107.768 12.345 107.698 11.895 107.558 11.475C107.428 11.045 107.228 10.67 106.958 10.35C106.688 10.03 106.343 9.78 105.923 9.6C105.513 9.41 105.033 9.315 104.483 9.315C103.413 9.315 102.568 9.62 101.948 10.23C101.338 10.84 100.948 11.705 100.778 12.825H107.768ZM100.703 15.06C100.763 15.85 100.903 16.535 101.123 17.115C101.343 17.685 101.633 18.16 101.993 18.54C102.353 18.91 102.778 19.19 103.268 19.38C103.768 19.56 104.318 19.65 104.918 19.65C105.518 19.65 106.033 19.58 106.463 19.44C106.903 19.3 107.283 19.145 107.603 18.975C107.933 18.805 108.218 18.65 108.458 18.51C108.708 18.37 108.948 18.3 109.178 18.3C109.488 18.3 109.718 18.415 109.868 18.645L110.933 19.995C110.523 20.475 110.063 20.88 109.553 21.21C109.043 21.53 108.508 21.79 107.948 21.99C107.398 22.18 106.833 22.315 106.253 22.395C105.683 22.475 105.128 22.515 104.588 22.515C103.518 22.515 102.523 22.34 101.603 21.99C100.683 21.63 99.8827 21.105 99.2027 20.415C98.5227 19.715 97.9877 18.855 97.5977 17.835C97.2077 16.805 97.0127 15.615 97.0127 14.265C97.0127 13.215 97.1827 12.23 97.5227 11.31C97.8627 10.38 98.3477 9.575 98.9777 8.895C99.6177 8.205 100.393 7.66 101.303 7.26C102.223 6.86 103.258 6.66 104.408 6.66C105.378 6.66 106.273 6.815 107.093 7.125C107.913 7.435 108.618 7.89 109.208 8.49C109.798 9.08 110.258 9.81 110.588 10.68C110.928 11.54 111.098 12.525 111.098 13.635C111.098 14.195 111.038 14.575 110.918 14.775C110.798 14.965 110.568 15.06 110.228 15.06H100.703Z" fill="#F2F2F2"/>
<path d="M117.583 18.3C118.003 18.81 118.458 19.17 118.948 19.38C119.448 19.59 119.973 19.695 120.523 19.695C121.093 19.695 121.603 19.595 122.053 19.395C122.513 19.185 122.903 18.865 123.223 18.435C123.543 17.995 123.788 17.44 123.958 16.77C124.128 16.09 124.213 15.28 124.213 14.34C124.213 12.65 123.933 11.43 123.373 10.68C122.813 9.92 122.008 9.54 120.958 9.54C120.248 9.54 119.628 9.705 119.098 10.035C118.568 10.355 118.063 10.81 117.583 11.4V18.3ZM117.583 8.79C118.203 8.14 118.888 7.625 119.638 7.245C120.398 6.855 121.263 6.66 122.233 6.66C123.123 6.66 123.923 6.835 124.633 7.185C125.353 7.535 125.963 8.04 126.463 8.7C126.973 9.35 127.363 10.14 127.633 11.07C127.903 12 128.038 13.045 128.038 14.205C128.038 15.455 127.883 16.59 127.573 17.61C127.263 18.63 126.818 19.505 126.238 20.235C125.668 20.955 124.978 21.515 124.168 21.915C123.358 22.315 122.458 22.515 121.468 22.515C120.988 22.515 120.553 22.465 120.163 22.365C119.773 22.275 119.413 22.145 119.083 21.975C118.753 21.805 118.448 21.6 118.168 21.36C117.898 21.11 117.638 20.835 117.388 20.535L117.223 21.57C117.163 21.83 117.058 22.015 116.908 22.125C116.768 22.235 116.573 22.29 116.323 22.29H113.878V0H117.583V8.79Z" fill="#F2F2F2"/>
</svg>
