<svg width="70" height="70" viewBox="0 0 70 70" fill="none" xmlns="http://www.w3.org/2000/svg">
<circle cx="35" cy="35" r="35" fill="#F2F2F2"/>
<g clip-path="url(#clip0)">
<path fill-rule="evenodd" clip-rule="evenodd" d="M46.8353 28.0669C46.7922 28.0535 46.7809 28.0038 46.7922 28.0287C41.5122 15.6142 23.4428 18.2027 21.7459 31.6235C21.7459 31.6235 19.059 32.2395 17.349 34.7266C16.3234 36.215 15.8097 38.0957 16.0647 40.1101C16.3103 42.0483 17.3059 43.7069 18.7178 44.8816C23.5815 48.9241 24.7084 43.5232 22.2934 42.6584C16.8334 40.6994 21.1703 32.339 25.8184 36.1079C22.1322 23.7145 41.3059 18.1568 43.9366 31.4589C49.2672 31.2638 52.3966 38.6773 46.9066 42.0598C44.9322 43.2746 46.3834 47.6767 50.2759 44.2618C55.8953 39.3316 53.8066 30.2269 46.8353 28.0669ZM41.8216 39.4081C42.5528 40.1561 42.5528 41.3671 41.8216 42.1132L35.1878 48.8801C33.7253 50.3724 31.3515 50.3743 29.8872 48.8801L27.6784 46.6284C25.9234 44.8394 28.5765 42.1323 30.3297 43.9231C33.0278 46.6743 32.8253 45.8821 39.1703 39.4081C39.9016 38.662 41.0884 38.662 41.8216 39.4081Z" fill="#304659"/>
</g>
<defs>
<clipPath id="clip0">
<rect width="37.5" height="30" fill="white" transform="translate(16 20)"/>
</clipPath>
</defs>
</svg>
