<svg width="234" height="234" viewBox="0 0 234 234" fill="none" xmlns="http://www.w3.org/2000/svg">
<path d="M234 117C234 181.617 181.617 234 117 234C52.3827 234 0 181.617 0 117C0 52.3827 52.3827 0 117 0C181.617 0 234 52.3827 234 117Z" fill="#FFBB00"/>
<path d="M197 117C197 161.183 161.183 197 117 197C72.8172 197 37 161.183 37 117C37 72.8172 72.8172 37 117 37C161.183 37 197 72.8172 197 117Z" fill="#2B00FF"/>
<path d="M160 116.5C160 140.524 140.524 160 116.5 160C92.4756 160 73 140.524 73 116.5C73 92.4756 92.4756 73 116.5 73C140.524 73 160 92.4756 160 116.5Z" fill="#FF0000"/>
</svg>
